# xmcd
# 
# Track frame offsets:
#     150
#     18970
#     37813
#     54200
#     71588
#     93664
#     110078
#     128302
#     148261
#     164174
#     178608
#     196362
#     214948
#     233192
#     249614
#     267270
#     287118
#     304403
#     323436
#     340605
# 
# Disc length: 4763
# 
# Revision: 1
# Processed by: cddbd v1.5.2PL0 Copyright (c) Steve Scherf et al.
# Submitted via: fre:ac v1.0.31
# 
DISCID=26129914
DTITLE=Various Artist - RnB Fridays Vol. 2 [2016]
DYEAR=2016
DGENRE=R&B
TTITLE0=Jagged Edge feat. Run of Run DMC - Let's Get Married (ReMarqable Remix)
TTITLE1=Ginuwine - Pony
TTITLE2=Chingy - Right Thurr
TTITLE3=112 - Dance With Me [Album Version]
TTITLE4=Missy Elliott - Work It
TTITLE5=Black Eyed Peas - Let's Get It Started
TTITLE6=The Pussycat Dolls - Don't Cha [Radio Edit]
TTITLE7=Fat Joe - What's Luv? (feat. Ja-Rule and Ashanti)
TTITLE8=Sean Paul - Get Busy
TTITLE9=Kelly Rowland - Work [Freemasons Radio Edit]
TTITLE10=Wreckx-N-Effect - Rump Shaker
TTITLE11=Salt-N-Pepa - Shoop
TTITLE12=Ja Rule Feat. Ashanti - Always On Time
TTITLE13=TLC - No Scrubs
TTITLE14=Craig David - 7 Days (Remastered)
TTITLE15=Jennifer Lopez - If You Had My Love
TTITLE16=Usher - Confessions Part II
TTITLE17=Chris Brown - With You
TTITLE18=Ashanti - Foolish
TTITLE19=K-Ci and JoJo - All My Life [Radio Edit]
EXTD=
EXTT0=
EXTT1=
EXTT2=
EXTT3=
EXTT4=
EXTT5=
EXTT6=
EXTT7=
EXTT8=
EXTT9=
EXTT10=
EXTT11=
EXTT12=
EXTT13=
EXTT14=
EXTT15=
EXTT16=
EXTT17=
EXTT18=
EXTT19=
PLAYORDER=
